<svg width="118" height="55" fill="none" xmlns="http://www.w3.org/2000/svg"><g filter="url(#a)"><path d="M19.994 25.8l-.335 2.507a37.806 37.806 0 00-2.413-.283c-.17-.015-.41-.029-.724-.042-.312-.027-.664-.05-1.055-.07-.379-.02-.77-.033-1.176-.042a94.617 94.617 0 00-1.12-.017c-.34-.003-.629.005-.866.024-.238.019-.384.046-.44.08a.799.799 0 00-.304.559.515.515 0 00.087.358c.023.041.163.085.421.133s.575.101.95.159c.376.045.785.093 1.226.143.455.039.884.082 1.286.129.417.035.78.073 1.092.112.324.04.55.073.68.097.488.106.866.281 1.134.525.28.245.484.541.61.89.129.336.195.712.198 1.128.017.417.006.839-.03 1.265-.018.206-.059.45-.122.73-.05.282-.121.562-.21.84-.09.278-.21.534-.362.769a1.708 1.708 0 01-.48.544c-.208.138-.538.24-.989.306-.438.066-.914.11-1.427.132-.5.022-.985.026-1.456.013-.47-.014-.83-.032-1.076-.053a24.696 24.696 0 01-2.565-.354c-.85-.176-1.692-.358-2.528-.546l.32-3.697c.804.238 1.616.404 2.433.5.83.096 1.66.212 2.486.347.168.027.421.062.758.104.351.03.703.053 1.056.07.353.004.676-.014.968-.055.291-.04.475-.115.55-.226a.239.239 0 00.05-.132l.013-.136a2.43 2.43 0 00-.006-.39.761.761 0 00-.084-.397c-.012-.014-.057-.024-.135-.03a1.543 1.543 0 00-.135-.032 41.33 41.33 0 00-2.18-.243 32.084 32.084 0 01-2.196-.304l-.91-.155c-.296-.064-.59-.141-.885-.231a7.486 7.486 0 01-.668-.232 2.205 2.205 0 01-.505-.297 1.514 1.514 0 01-.337-.418 1.712 1.712 0 01-.158-.677.915.915 0 01-.017-.254l.025-.29c.02-.233.056-.496.107-.79.052-.295.123-.588.214-.88.103-.29.218-.56.345-.808.14-.261.309-.468.506-.62.127-.106.343-.185.65-.237a8.765 8.765 0 011.05-.106c.396-.032.817-.048 1.263-.049.445-.001.87.009 1.275.03.418.01.79.029 1.116.056.339.016.593.031.762.045.729.062 1.443.136 2.144.221.713.087 1.42.18 2.119.278z" fill="#fff"/><path d="M35.694 32.943l-.027.31a2.34 2.34 0 01-.045.289c-.028.18-.086.473-.174.882-.088.408-.197.834-.327 1.278a9.802 9.802 0 01-.437 1.191c-.162.363-.326.59-.49.68-.084.045-.354.067-.813.067a79.492 79.492 0 01-3.746-.104c-.757-.038-1.48-.073-2.173-.106-.677-.044-1.277-.083-1.799-.114a49.262 49.262 0 01-1.426-.101l-.585-.05c-.207-.03-.401-.06-.582-.088a1.795 1.795 0 01-.386-.092 1.965 1.965 0 01-.52-.356 4.663 4.663 0 01-.463-.546 8.329 8.329 0 01-.38-.617 2.722 2.722 0 01-.203-.602 3.98 3.98 0 01-.043-.647c0-.3.007-.604.02-.915l.042-.932.058-.677c.021-.245.057-.58.107-1.005.05-.438.128-.88.232-1.325.104-.446.231-.858.382-1.235.164-.389.37-.65.618-.786.11-.055.31-.097.6-.124.291-.028.633-.044 1.027-.05.394-.005.812.004 1.256.029.444.012.875.035 1.291.07.43.024.828.052 1.192.082.365.031.657.063.877.094.194.03.473.066.836.11.364.031.767.072 1.208.122.454.052.92.118 1.398.197.48.067.925.144 1.337.23.412.088.77.19 1.075.306.318.105.525.22.618.345.154.195.267.478.34.848.073.37.118.764.134 1.181.03.405.035.809.014 1.21-.008.39-.022.706-.043.951zM31.52 33a10 10 0 00.022-1.168 4.37 4.37 0 00-.063-.63 1.855 1.855 0 00-.152-.52c-.09-.176-.28-.322-.571-.438a5.452 5.452 0 00-.979-.278 9.73 9.73 0 00-1.045-.186c-.338-.042-.59-.07-.76-.084a10.428 10.428 0 00-.49-.022c-.234-.02-.482-.034-.743-.044a5.872 5.872 0 00-.71.018c-.223.007-.368.027-.437.06a.75.75 0 00-.305.345c-.078.15-.145.319-.201.51a8.815 8.815 0 00-.109.575l-.038.445c-.01.116-.022.33-.036.64 0 .3-.001.624-.005.974.01.34.029.653.056.94.028.29.077.475.149.56.082.11.244.209.485.294.255.087.523.168.805.244.296.064.58.12.85.17.272.036.467.059.584.069.208.017.456.032.743.043a6.506 6.506 0 001.725-.165 1.64 1.64 0 00.656-.315.93.93 0 00.25-.388 3.84 3.84 0 00.167-.57c.044-.205.074-.404.091-.597a8.21 8.21 0 00.061-.483z" fill="#F4F428"/><path d="M48.936 35.998l-.092 1.064c-.03.349-.073.696-.13 1.042l-4.375-.099c.11-.666.206-1.327.29-1.983a34.133 34.133 0 00.26-2.337 6.28 6.28 0 00.022-.485c.003-.182.004-.35.005-.507 0-.156-.003-.266-.01-.332a2.613 2.613 0 00-.175-.483.86.86 0 00-.227-.33.733.733 0 00-.338-.186 2.057 2.057 0 00-.522-.102 6.084 6.084 0 00-.609-.013c-.236.006-.48.024-.732.055a5.6 5.6 0 00-.719.134c-.228.058-.392.135-.492.23l-.532 5.707c-.021-.054-.097-.087-.227-.098l-.254-.021c-.39-.033-.795-.048-1.215-.045a17.56 17.56 0 00-1.22.013 186 186 0 01-.056-4.586c0-1.52-.019-3.049-.056-4.586.261.01.522.025.782.047.261.01.522.025.782.047.339.029.676.07 1.012.125l1.03.127.009 1.501a4.678 4.678 0 011.612-1.364 3.678 3.678 0 012.062-.43c.364.032.74.083 1.127.155.386.072.75.18 1.092.327.354.147.678.337.973.57.307.234.558.522.751.863.09.163.155.403.194.718.052.303.087.65.106 1.042.02.379.024.782.014 1.21.002.43-.007.838-.028 1.226-.02.388-.044.744-.072 1.066-.014.31-.028.55-.042.718z" fill="#00A02D"/><path d="M65.494 35.474l-.026.31c-.008.09-.023.186-.045.288-.029.18-.087.474-.174.882a17.94 17.94 0 01-.327 1.279 9.786 9.786 0 01-.437 1.19c-.162.364-.326.59-.491.68-.083.045-.353.068-.812.068a79.498 79.498 0 01-3.746-.104c-.757-.038-1.481-.074-2.173-.106a316.09 316.09 0 00-1.799-.114 49.16 49.16 0 01-1.426-.102l-.585-.05c-.208-.03-.402-.06-.583-.088a1.797 1.797 0 01-.385-.091 1.966 1.966 0 01-.52-.356 4.66 4.66 0 01-.464-.546 8.262 8.262 0 01-.379-.617 2.719 2.719 0 01-.203-.603 3.977 3.977 0 01-.043-.646c0-.3.006-.604.02-.915.015-.324.029-.634.041-.932l.059-.678c.021-.245.056-.58.106-1.004.051-.438.129-.88.233-1.326.104-.446.231-.857.382-1.235.164-.388.37-.65.618-.785.11-.056.31-.097.6-.125.291-.027.633-.044 1.027-.049.393-.006.812.004 1.256.029.444.011.875.035 1.29.07.431.024.829.051 1.193.082.364.031.657.062.877.094.194.03.472.066.835.11.365.03.768.072 1.209.122.454.052.92.117 1.398.197.48.066.925.143 1.337.23.412.087.77.19 1.074.306.319.105.525.22.62.345.153.195.266.477.339.848.073.37.117.763.134 1.18.03.406.035.81.013 1.21-.007.39-.021.707-.043.952zm-4.172.055a10 10 0 00.022-1.168 4.385 4.385 0 00-.063-.629 1.858 1.858 0 00-.152-.52c-.09-.176-.28-.322-.572-.438a5.447 5.447 0 00-.978-.278 9.722 9.722 0 00-1.046-.186c-.337-.042-.59-.07-.76-.084a10.434 10.434 0 00-.489-.023c-.234-.02-.482-.034-.743-.043a5.87 5.87 0 00-.71.018c-.223.007-.369.027-.437.06a.75.75 0 00-.305.344c-.078.15-.145.32-.201.51a8.883 8.883 0 00-.109.575l-.038.445c-.01.116-.022.33-.036.64 0 .3-.002.624-.005.975.01.339.028.652.056.94.027.289.077.475.148.559.082.11.244.21.486.295.255.086.523.167.804.243.296.065.58.121.85.17.273.036.468.06.585.07.208.017.456.031.743.043a6.505 6.505 0 001.725-.166 1.64 1.64 0 00.656-.314.93.93 0 00.25-.389c.067-.176.123-.366.167-.57.044-.204.074-.403.09-.597.032-.205.052-.366.062-.482z" fill="#CC0A0A"/><path d="M78.848 36.101l-.039.445-3.781-.145c.053-.165.09-.357.108-.576.028-.323 0-.533-.083-.631-.082-.111-.28-.18-.591-.206a5.31 5.31 0 00-1.484.108c-.547.11-1.028.218-1.444.326a37.678 37.678 0 00-.303 1.69c-.088.564-.156 1.13-.206 1.697l-.163 1.897-.123 1.88-3.376-.072.018-2.474c.006-.831.019-1.662.038-2.492.03-1.102.04-2.2.029-3.292-.01-1.106-.019-2.218-.027-3.336.737.114 1.466.254 2.185.42.734.153 1.466.332 2.195.537l-.238 1.617c.417-.276.81-.51 1.181-.699a7.52 7.52 0 011.143-.488 5.26 5.26 0 011.219-.228 7.64 7.64 0 011.396.002c.338.029.686.097 1.043.205.36.096.657.284.895.564.118.153.21.375.277.667a7.51 7.51 0 01.154 1.865c0 .299-.008.538-.023.719z" fill="#F4F428"/><path d="M93.126 38.308a346.708 346.708 0 01-5.114-.2 692.371 692.371 0 00-5.108-.259.635.635 0 00-.033.153l-.013.155c-.038.439.03.783.205 1.031.188.25.428.44.718.568.291.116.619.196.982.24.363.043.7.078 1.013.105.872.074 1.746.122 2.622.145l2.651.03-.11 3.09c-.861-.034-1.723-.075-2.584-.122a84.138 84.138 0 01-2.56-.178l-1.014-.086c-.48-.054-1-.118-1.557-.191a43.086 43.086 0 01-1.53-.266c-.477-.093-.79-.19-.938-.295a2.756 2.756 0 01-.88-.97 5.124 5.124 0 01-.424-1.226 8.808 8.808 0 01-.142-1.318c0-.455.011-.89.034-1.304a.974.974 0 01-.003-.195 1.3 1.3 0 00.038-.211c.06-.684.185-1.31.379-1.878.207-.58.536-1.131.988-1.651.306-.364.737-.653 1.293-.865a8.13 8.13 0 011.789-.453 11.873 11.873 0 011.9-.15c.63-.012 1.173.002 1.628.04.404.035.895.115 1.473.242.58.115 1.15.28 1.707.496a6.999 6.999 0 011.524.793c.446.297.737.647.873 1.048.02.08.034.218.043.413.023.184.044.4.062.649.019.235.03.49.032.763a21.202 21.202 0 01.033 1.445c.009.196.017.333.023.412zm-2.532-1.638c-.029-.575-.14-1.032-.334-1.374a1.897 1.897 0 00-.736-.803 2.85 2.85 0 00-1.066-.403 10.358 10.358 0 00-1.888-.218c-.235-.02-.47-.02-.708-.002a3.568 3.568 0 00-.675.08 1.18 1.18 0 00-.511.229.94.94 0 00-.263.309 3.296 3.296 0 00-.173.414 5.93 5.93 0 00-.138.456c-.025.14-.043.263-.051.366-.018.207-.016.408.006.605l6.537.34z" fill="#00A02D"/><path d="M106 33.104l-.334 2.506a37.844 37.844 0 00-2.414-.283c-.169-.014-.41-.028-.723-.042-.313-.026-.664-.05-1.056-.07-.378-.02-.77-.033-1.176-.041a92.322 92.322 0 00-1.119-.017c-.34-.003-.63.005-.867.024-.238.018-.384.045-.44.08a.798.798 0 00-.303.558.515.515 0 00.087.358c.022.041.163.086.42.134.259.048.575.1.95.158.377.045.785.093 1.227.143.455.04.884.082 1.286.13.416.035.78.072 1.091.111.324.04.551.073.68.097.489.106.867.282 1.134.525.28.245.484.542.611.89.128.336.194.712.198 1.128.016.418.006.84-.031 1.265a5.48 5.48 0 01-.122.73c-.05.282-.121.562-.21.84-.09.279-.21.535-.361.769a1.71 1.71 0 01-.48.544c-.208.138-.538.24-.99.306-.438.067-.913.11-1.426.132-.5.023-.986.027-1.456.013s-.83-.032-1.077-.053a24.696 24.696 0 01-2.564-.354c-.85-.176-1.693-.358-2.528-.546l.319-3.696c.805.237 1.616.404 2.434.499.83.096 1.659.212 2.486.347.168.028.42.062.758.104.351.03.703.053 1.055.07.354.004.676-.014.968-.054.292-.04.475-.116.551-.226a.237.237 0 00.05-.133l.012-.135a2.377 2.377 0 00-.006-.39.759.759 0 00-.083-.397c-.012-.014-.057-.025-.135-.031a1.523 1.523 0 00-.135-.031c-.725-.1-1.452-.182-2.181-.244a32.081 32.081 0 01-2.195-.303c-.297-.052-.6-.103-.91-.156-.297-.064-.592-.14-.885-.23a7.493 7.493 0 01-.668-.233 2.208 2.208 0 01-.505-.296 1.514 1.514 0 01-.338-.419 1.711 1.711 0 01-.158-.676.916.916 0 01-.017-.255l.025-.29a9.22 9.22 0 01.108-.79c.051-.295.123-.588.213-.879.104-.29.219-.56.345-.809.14-.261.31-.468.506-.62.127-.106.344-.185.65-.237a8.787 8.787 0 011.05-.106c.397-.031.817-.047 1.263-.049.446 0 .87.01 1.275.03.419.01.791.029 1.116.056.339.016.594.031.763.046.728.062 1.443.135 2.143.22.713.087 1.42.18 2.119.278z" fill="#fff"/><path d="M17.39 6.1c4.584.544 6.875.874 6.875.99.392 1.807.686 3.244.882 4.313l-.118.058h-3.702c-.117 0-.215-.33-.293-.99l-3.644-.467-3.232.408a98.707 98.707 0 00-.41 3.904c2.124-.31 3.32-.466 3.584-.466l.058.117v3.67c0 .107-1.194.302-3.584.583l.353 3.03 3.231.408c2.214-.272 3.428-.446 3.644-.524.078-.622.176-.932.293-.932h3.702c.079.01.118.048.118.116-.558 2.914-.891 4.37-.999 4.37-4.3.583-6.552.875-6.758.875-4.583-.544-6.875-.875-6.875-.991-.587-5.555-.881-8.488-.881-8.799.51-5.293.822-8.226.94-8.799 4.368-.583 6.64-.874 6.816-.874z" fill="#00A02D"/><path d="M34.373 10.237c4.583.544 6.875.874 6.875.99l.646 4.954-.117.058h-3.702c-.118 0-.236-.544-.353-1.631-.725-.117-1.841-.272-3.35-.467-2.223.272-3.359.447-3.408.525 0 .243-.137 1.33-.41 3.263.273 2.214.45 3.321.528 3.321.245 0 1.342.136 3.29.408 2.233-.272 3.35-.446 3.35-.524.137-1.049.255-1.573.353-1.573h3.702c.078.01.117.048.117.116-.313 2.506-.548 4.196-.705 5.07h-.176c-.216 0-2.43.272-6.64.816-4.192-.544-6.464-.816-6.817-.816-.627-4.108-.94-6.42-.94-6.934.51-3.973.823-6.206.94-6.702 4.368-.582 6.64-.874 6.817-.874z" fill="#fff"/><path d="M49.563 6.1v.058c0 .233-.196 1.71-.588 4.429l2.88-.35c4.406.583 6.678.894 6.816.933l.881 6.759c-.617 5.089-.99 7.634-1.116 7.634h-3.761l-.118-.059c.04-.136.392-2.66 1.058-7.575-.284-2.214-.46-3.321-.529-3.321l-3.29-.467c-2.273.292-3.409.486-3.409.583 0 .243-.137 1.311-.411 3.205.666 4.914 1.019 7.44 1.058 7.575l-.118.058h-3.76c-.128 0-.5-2.544-1.117-7.633.98-7.595 1.528-11.538 1.645-11.829h3.879z" fill="#000"/><path d="M69.248 10.237c4.583.544 6.875.874 6.875.99.587 4.264.881 6.498.881 6.702-.548 4.545-.881 6.818-.999 6.818h-.058c-.245 0-2.478.272-6.7.816-4.19-.544-6.463-.816-6.816-.816-.078-.156-.391-2.428-.94-6.818.549-4.545.882-6.818 1-6.818 4.299-.582 6.551-.874 6.757-.874zm-3.82 7.692c.235 1.768.392 2.855.47 3.263.725.117 1.842.272 3.35.466 2.272-.262 3.408-.456 3.408-.582 0-.166.137-1.214.411-3.147-.274-2.214-.45-3.321-.529-3.321-.088-.04-1.185-.195-3.29-.467-2.272.263-3.408.457-3.408.583 0 .243-.138 1.311-.412 3.205z" fill="#F4F428"/><path d="M86.7 10.237c4.584.544 6.875.874 6.875.99l.647 4.954-.118.058h-3.702c-.118 0-.235-.544-.353-1.631-.724-.117-1.84-.272-3.349-.467-2.096.272-3.212.428-3.35.467l-.058.116v.233c0 .088 1.351.457 4.054 1.107l6.876 1.865v.058c-.549 4.312-.862 6.566-.94 6.76h-.118c-.245 0-2.478.272-6.699.816-4.211-.544-6.425-.816-6.64-.816h-.118c-.107 0-.323-1.438-.646-4.312-.049 0-.088-.272-.118-.816l.118-.058h3.702c.108 0 .225.543.353 1.631.724.117 1.84.272 3.349.466 2.096-.272 3.212-.427 3.35-.466l.058-.116v-.292c-1.224-.272-4.867-1.223-10.93-2.855v-.116c.51-3.973.823-6.206.94-6.702 4.369-.582 6.64-.874 6.817-.874z" fill="#fff"/></g><defs><filter id="a" x="2.9" y="0" width="114.2" height="54.2" filterUnits="userSpaceOnUse" color-interpolation-filters="sRGB"><feFlood flood-opacity="0" result="BackgroundImageFix"/><feColorMatrix in="SourceAlpha" values="0 0 0 0 0 0 0 0 0 0 0 0 0 0 0 0 0 0 127 0" result="hardAlpha"/><feOffset dx="3" dy="2"/><feGaussianBlur stdDeviation="4.05"/><feComposite in2="hardAlpha" operator="out"/><feColorMatrix values="0 0 0 0 0 0 0 0 0 0 0 0 0 0 0 0 0 0 0.72 0"/><feBlend in2="BackgroundImageFix" result="effect1_dropShadow_2_33"/><feBlend in="SourceGraphic" in2="effect1_dropShadow_2_33" result="shape"/></filter></defs></svg>